<svg xmlns="http://www.w3.org/2000/svg" xmlns:xlink="http://www.w3.org/1999/xlink" width="211.815" height="42.579" viewBox="0 0 211.815 42.579">
  <defs>
    <clipPath id="clip-path">
      <rect id="Retângulo_5695" data-name="Retângulo 5695" width="211.815" height="42.579" fill="#fff"/>
    </clipPath>
  </defs>
  <g id="logo-janeiro-branco" transform="translate(0 0)">
    <g id="Grupo_7108" data-name="Grupo 7108" transform="translate(0 0)" clip-path="url(#clip-path)">
      <path id="Caminho_25736" data-name="Caminho 25736" d="M174.758,40.111a2.466,2.466,0,0,0,4.454,1.46V39.745h-1.84v.78h1.02v.84a1.529,1.529,0,0,1-1.173.44,1.695,1.695,0,1,1,1.313-2.846l.507-.54a2.4,2.4,0,0,0-1.82-.767,2.45,2.45,0,0,0-2.461,2.46m-6.3.007a1.634,1.634,0,1,1,1.627,1.68,1.615,1.615,0,0,1-1.627-1.68m-.833,0a2.464,2.464,0,1,0,2.461-2.46,2.467,2.467,0,0,0-2.461,2.46m-3.7-1.593h.713a1.588,1.588,0,0,1,0,3.174h-.713Zm.713-.78H163.1v4.733h1.534a2.367,2.367,0,0,0,0-4.733m-7.057,3.236.645-1.9a1.448,1.448,0,0,0,.1-.333h.014a3.5,3.5,0,0,0,.1.34l.652,1.891Zm.273-3.229-1.671,4.726h.879l.253-.718h2.051l.259.718h.878l-1.684-4.726Zm-12.931.766h.659a.826.826,0,0,1,.812.872.816.816,0,0,1-.812.866h-.659Zm.659-.772h-1.5l.007,4.727h.839V41.041h.552l.839,1.431h.945l-.945-1.638a1.605,1.605,0,0,0,.925-1.445,1.642,1.642,0,0,0-1.658-1.644m-4.838.772h.639a.854.854,0,0,1,.833.885.828.828,0,0,1-.833.866h-.639Zm.639-.759h-1.471v4.719h.833V41.054h.639a1.648,1.648,0,1,0,0-3.3m-6.642,0H133.6v4.719h.826V39.143h.026a4.235,4.235,0,0,0,.153.506l1.045,2.829h.766l1.045-2.829c.073-.2.113-.359.153-.506h.026v3.335h.819V37.758h-1.145l-1.278,3.595h-.02Zm-2.328,0h-3.016v4.719h3.016V41.7h-2.184V40.5h1.8v-.779h-1.8V38.531h2.184ZM24.757,23.348l4.661-7.536,4.57,7.536ZM26.633,10.7,13.013,31.278h6.931l2.27-3.633H36.561l2.21,3.633h7.082L32.263,10.7ZM10.411,29.22V10.7H4.721V29.068c0,1.5-.267,2.157-1.171,2.592A9.956,9.956,0,0,1,0,32.041l.273,4.9c.212,0,1.906,0,2.239-.03,4.813-.182,7.9-2.664,7.9-7.687M48.786,5.378V10.7l5.741-5.319V0H4.67V5.378L10.411,10.7V5.378Zm21.983,25.9H76.51V10.7H70.769V24.073L54.527,10.7H48.786V31.278h5.741V18.022Zm11.06,0h24.55V26.911H87.57V23.079h18.809V18.9H87.57V15.063h18.809V10.7H81.829Zm30.687,6.48h-.833v3.056a1.815,1.815,0,0,0,3.629,0V37.758h-.833l.007,3.1a.906.906,0,0,1-.985.932.9.9,0,0,1-.985-.932Zm-.833-6.48h5.741V10.7h-5.741Zm9.026,11.2h.818V37.758h-1.145L119.1,41.353h-.019l-1.278-3.595h-1.138v4.719h.825V39.143h.027a4.066,4.066,0,0,0,.152.506l1.045,2.829h.766l1.045-2.829c.074-.2.114-.359.153-.506h.027Zm3.126-1.5.646-1.9a1.491,1.491,0,0,0,.1-.333h.013a3.5,3.5,0,0,0,.1.34l.653,1.891Zm.274-3.229-1.671,4.726h.878l.253-.718h2.051l.26.718h.878l-1.685-4.726Zm16.418-18.23H128.5V15.033h11.817c1.8,0,3.023.763,3.023,2.168,0,1.619-1.191,2.321-2.81,2.321m8.916,11.756-7.908-7.97h.916c3.634-.183,6.5-2.412,6.5-6.29,0-4.276-3.359-6.321-7.3-6.321h-18.9V31.278H128.5V23.613h6.23l7.053,7.665Zm-1.037,11.2h3.016V41.7H149.24V40.5h1.8v-.779h-1.8V38.531h2.184v-.772h-3.016Zm5.6-4.826a1.486,1.486,0,0,0-1.578,1.392c0,.992.826,1.211,1.4,1.385.619.186.878.293.878.739,0,.34-.3.619-.792.619a.733.733,0,0,1-.8-.645h-.819a1.539,1.539,0,0,0,1.611,1.431,1.523,1.523,0,0,0,1.625-1.444c0-1.092-.879-1.3-1.485-1.485s-.792-.339-.792-.659.286-.559.745-.559a.662.662,0,0,1,.739.626h.825a1.477,1.477,0,0,0-1.558-1.4m22.827-16.574c0,4.177-3.45,6.538-8.777,6.538-5.388,0-8.838-2.391-8.838-6.538s3.451-6.537,8.838-6.537c5.327,0,8.777,2.391,8.777,6.537m6.054,0c0-7.748-7.506-10.744-14.83-10.744-7.355,0-14.831,3-14.831,10.744,0,7.779,7.506,10.745,14.831,10.745,7.415,0,14.83-2.966,14.83-10.745m-1.115,19.174h-.66v-1.74h.66a.827.827,0,0,1,.813.873.817.817,0,0,1-.813.866m1.68,2.221-.946-1.641a1.607,1.607,0,0,0,.927-1.447,1.645,1.645,0,0,0-1.66-1.647h-1.507l.007,4.734h.84V41.038h.553l.84,1.434ZM188,40.812v-3.06h-.833l.007,3.107a.908.908,0,0,1-.987.933.9.9,0,0,1-.987-.933V37.752h-.833v3.06a1.818,1.818,0,0,0,3.634,0m3.518-1.414a.829.829,0,0,1-.833.866h-.639V38.511h.639a.855.855,0,0,1,.833.887m.827,0a1.645,1.645,0,0,0-1.66-1.647h-1.473v4.726h.833V41.052h.639a1.655,1.655,0,0,0,1.66-1.653m4.652.72a1.634,1.634,0,1,1-1.64-1.686,1.623,1.623,0,0,1,1.64,1.686m.827,0a2.463,2.463,0,1,0-2.466,2.461,2.455,2.455,0,0,0,2.466-2.461m6.6,2.36h.82V37.752h-1.147l-1.28,3.6h-.019l-1.281-3.6h-1.139v4.726h.826v-3.34h.027a3.954,3.954,0,0,0,.153.507l1.047,2.833h.767l1.047-2.833c.073-.2.113-.36.153-.507h.026Zm2.125,0h.833V37.752h-.833Zm4.446-3.08a.829.829,0,0,1-.833.866h-.64V38.511h.64a.855.855,0,0,1,.833.887m.827,0a1.645,1.645,0,0,0-1.66-1.647h-1.474v4.726h.833V41.052h.64a1.655,1.655,0,0,0,1.66-1.653" transform="translate(0 0)" fill="#fff"/>
    </g>
  </g>
</svg>
